<svg xmlns="http://www.w3.org/2000/svg" viewBox="0 0 24 24" fill="none">
  <rect width="24" height="24" fill="#a2ac91"/>
  <path d="M9 3H15V5H17V7H19V11H21V17H19V20H17V22H13V20H11V22H7V20H5V17H3V11H5V7H7V5H9V3Z" fill="#828f73"/>
  <path fill-rule="evenodd" clip-rule="evenodd" d="M10 5H14V6H16V7H18V9H19V14H20V17H19V19H17V20H15V21H9V20H7V19H5V17H4V14H5V9H6V7H8V6H10V5ZM10 6H14V7H16V9H18V14H19V17H18V19H16V20H14V19H10V20H8V19H6V17H5V14H6V9H8V7H10V6Z" fill="#12140e"/>
  <path d="M8 11L9 10L10 11L9 12L8 11Z" fill="#12140e"/>
  <path d="M14 11L15 10L16 11L15 12L14 11Z" fill="#12140e"/>
  <rect x="11" y="12" width="2" height="1" fill="#12140e"/>
  <rect x="10" y="0" width="1" height="2" fill="#12140e"/>
  <rect x="11" y="2" width="1" height="2" fill="#12140e"/>
  <rect x="10" y="4" width="1" height="2" fill="#12140e"/>
  <rect x="14" y="1" width="1" height="2" fill="#12140e"/>
  <rect x="13" y="3" width="1" height="2" fill="#12140e"/>
  <rect x="14" y="5" width="1" height="2" fill="#12140e"/>
</svg>
