<svg xmlns="http://www.w3.org/2000/svg" width="1200" height="630" viewBox="0 0 1200 630">
  <rect width="1200" height="630" fill="#a2ac91"/>
  <rect width="1200" height="630" fill="none" stroke="#12140e" stroke-width="8"/>
  <!-- grid overlay -->
  <defs>
    <pattern id="grid" width="8" height="8" patternUnits="userSpaceOnUse">
      <path d="M 8 0 L 0 0 0 8" fill="none" stroke="#12140e" stroke-width="0.2" opacity="0.3"/>
    </pattern>
  </defs>
  <rect width="1200" height="630" fill="url(#grid)"/>
  <!-- top bar -->
  <rect y="0" width="1200" height="60" fill="#96a184" stroke="#12140e" stroke-width="2"/>
  <text x="30" y="40" font-family="monospace" font-size="22" fill="#12140e">HARSHA.SYS // LOGS</text>
  <text x="900" y="40" font-family="monospace" font-size="18" fill="#828f73">STATUS: ONLINE</text>
  <!-- main text -->
  <text x="100" y="220" font-family="monospace" font-size="72" font-weight="bold" fill="#12140e">HARSHA</text>
  <text x="100" y="300" font-family="monospace" font-size="72" font-weight="bold" fill="#12140e">VARDAN</text>
  <text x="100" y="380" font-family="monospace" font-size="72" font-weight="bold" fill="#12140e">HARIPRASAD</text>
  <text x="100" y="460" font-family="monospace" font-size="28" fill="#828f73">CURRENTLY: SIDE-QUESTING</text>
  <!-- pixel pet -->
  <g transform="translate(900, 200) scale(12)">
    <path fill-rule="evenodd" clip-rule="evenodd" d="M10 5H14V6H16V7H18V9H19V14H20V17H19V19H17V20H15V21H9V20H7V19H5V17H4V14H5V9H6V7H8V6H10V5ZM10 6H14V7H16V9H18V14H19V17H18V19H16V20H14V19H10V20H8V19H6V17H5V14H6V9H8V7H10V6Z" fill="#12140e"/>
    <path d="M8 11L9 10L10 11L9 12L8 11Z" fill="#12140e"/>
    <path d="M14 11L15 10L16 11L15 12L14 11Z" fill="#12140e"/>
    <rect x="11" y="12" width="2" height="1" fill="#12140e"/>
  </g>
  <!-- bottom bar -->
  <rect y="570" width="1200" height="60" fill="#96a184" stroke="#12140e" stroke-width="2"/>
  <text x="30" y="610" font-family="monospace" font-size="18" fill="#828f73">> PERSONAL LOG. NO NICHE. NO STRATEGY. JUST LOGS.</text>
</svg>
